RUSSIAN FATTIES MARGO 
http://leetleech.org/images/96764355626379744567.jpg
Format                           : MPEG-PS
File size                        : 415 MiB
Duration                         : 20mn 47s
Overall bit rate                 : 2 793 Kbps

Video
ID                               : 224 (0xE0)
Format                           : MPEG Video
Format version                   : Version 1
Format settings, BVOP            : Yes
Format settings, Matrix          : Default
Duration                         : 20mn 47s
Bit rate mode                    : Constant
Bit rate                         : 2 600 Kbps
Width                            : 720 pixels
Height                           : 576 pixels
Display aspect ratio             : 5:4
Frame rate                       : 25.000 fps
Standard                         : PAL
Color space                      : YUV
Bit depth                        : 8 bits
Scan type                        : Progressive
Compression mode                 : Lossy
Bits/(Pixel*Frame)               : 0.251
Stream size                      : 388 MiB (93%)

Audio
ID                               : 192 (0xC0)
Format                           : MPEG Audio
Format version                   : Version 1
Format profile                   : Layer 2
Duration                         : 20mn 47s
Bit rate mode                    : Constant
Bit rate                         : 128 Kbps
Channel(s)                       : 2 channels
Sampling rate                    : 44.1 KHz
Compression mode                 : Lossy
Stream size                      : 19.0 MiB (5%)
[img]http://torrent-stats.info/adc8/f5fb43e0.png[/img]
